<svg width="512" height="512" viewBox="0 0 512 512" fill="none" xmlns="http://www.w3.org/2000/svg">
  <rect width="512" height="512" rx="132" fill="#2D5638"/>
  <path d="M124 296c0-77 61-140 136-140 70 0 128 53 136 121" stroke="#FFF8EE" stroke-width="28" stroke-linecap="round"/>
  <path d="M157 312c26 62 86 98 146 77 42-15 72-51 81-94" stroke="#FFF8EE" stroke-width="28" stroke-linecap="round"/>
  <path d="M254 166c-35-53-116-20-96 45 13 42 65 71 96 112 32-41 83-70 97-112 20-65-61-98-97-45Z" fill="#D95482"/>
  <path d="M254 171c-24-38-82-15-68 31 9 30 47 50 68 80 22-30 58-50 68-80 14-46-44-69-68-31Z" fill="#FFF8EE" opacity="0.22"/>
  <circle cx="360" cy="150" r="24" fill="#DD8A3D"/>
  <path d="M151 367c42 42 107 61 171 41" stroke="#C9A85D" stroke-width="18" stroke-linecap="round"/>
  <text x="256" y="463" text-anchor="middle" font-family="Inter, Arial, sans-serif" font-size="64" font-weight="800" fill="#FFF8EE" letter-spacing="-4">PQ</text>
</svg>
